<svg xmlns="http://www.w3.org/2000/svg" viewBox="0 0 1138.76 761.01"><defs><style>.cls-1{fill:#2e186a;}.cls-2{fill:#fe7624;}.cls-3{fill:#5d21d1;}.cls-4{fill:none;}.cls-4,.cls-6{stroke:#2e186a;stroke-linecap:round;stroke-linejoin:round;stroke-width:6px;}.cls-5,.cls-6{fill:#fff;}</style></defs><g id="Layer_2" data-name="Layer 2"><g id="solid"><g id="project_launch" data-name="project launch"><g id="stars"><path class="cls-1" d="M802.18,32.34a3,3,0,1,0,6,0V20.67h11.67a3,3,0,0,0,0-6H808.18V3a3,3,0,0,0-6,0V14.67H790.51a3,3,0,1,0,0,6h11.67Z"/><path class="cls-1" d="M313.4,110.51H301.73V98.84a3,3,0,0,0-6,0v11.67H284.06a3,3,0,0,0,0,6h11.67v11.67a3,3,0,0,0,6,0V116.51H313.4a3,3,0,0,0,0-6Z"/><path class="cls-1" d="M258.49,248.45H246.82V236.78a3,3,0,0,0-6,0v11.67H229.15a3,3,0,0,0,0,6h11.67v11.67a3,3,0,0,0,6,0V254.45h11.67a3,3,0,0,0,0-6Z"/><path class="cls-1" d="M100.22,186.59H88.55V174.92a3,3,0,0,0-6,0v11.67H70.88a3,3,0,0,0,0,6H82.55v11.68a3,3,0,0,0,6,0V192.59h11.67a3,3,0,0,0,0-6Z"/><path class="cls-1" d="M180.06,367.53H168.39V355.86a3,3,0,0,0-6,0v11.67H150.72a3,3,0,0,0,0,6h11.67V385.2a3,3,0,0,0,6,0V373.53h11.67a3,3,0,0,0,0-6Z"/><path class="cls-1" d="M32.34,297.46H20.67V285.79a3,3,0,0,0-6,0v11.67H3a3,3,0,0,0,0,6H14.67v11.67a3,3,0,0,0,6,0V303.46H32.34a3,3,0,0,0,0-6Z"/><path class="cls-1" d="M957.22,290.36H945.55V278.69a3,3,0,0,0-6,0v11.67H927.87a3,3,0,0,0,0,6h11.68V308a3,3,0,0,0,6,0V296.36h11.67a3,3,0,0,0,0-6Z"/><path class="cls-1" d="M997.54,422.88H985.87V411.21a3,3,0,1,0-6,0v11.67H968.2a3,3,0,0,0,0,6h11.67v11.68a3,3,0,1,0,6,0V428.88h11.67a3,3,0,0,0,0-6Z"/><path class="cls-1" d="M1111.37,288.43a3,3,0,1,0,6,0V276.76H1129a3,3,0,0,0,0-6h-11.67V259.09a3,3,0,1,0-6,0v11.67H1099.7a3,3,0,0,0,0,6h11.67Z"/><path class="cls-1" d="M829.76,486.05H818.09V474.38a3,3,0,0,0-6,0v11.67H800.42a3,3,0,0,0,0,6h11.67v11.68a3,3,0,1,0,6,0V492.05h11.67a3,3,0,0,0,0-6Z"/><path class="cls-1" d="M1135.76,486.05h-11.67V474.38a3,3,0,1,0-6,0v11.67h-11.67a3,3,0,0,0,0,6h11.67v11.68a3,3,0,0,0,6,0V492.05h11.67a3,3,0,0,0,0-6Z"/></g><g id="rocket"><path id="fire" class="cls-2" d="M295.34,431.36l-65,72.8a4.88,4.88,0,0,0,5.48,7.68l50.3-7.72s-68,79.63-48.09,114.49S369.6,626.2,369.6,626.2l-30.75,42.49a4.89,4.89,0,0,0,5.71,7.52L435.68,645s143-69.72,46.26-192.42S295.34,431.36,295.34,431.36Z"/><g id="lines_and_circles" data-name="lines and circles"><circle class="cls-3" cx="131.06" cy="522.37" r="16.16"/><line class="cls-4" x1="378.5" y1="435.59" x2="146.9" y2="519.18"/><circle class="cls-3" cx="150.5" cy="676.73" r="16.16"/><line class="cls-4" x1="417.85" y1="478.74" x2="165.39" y2="667.26"/><circle class="cls-3" cx="313.27" cy="744.85" r="16.16"/><line class="cls-4" x1="457.36" y1="525.76" x2="320.2" y2="730.25"/><line class="cls-4" x1="916.24" y1="86.24" x2="958.5" y2="57.07"/><circle class="cls-3" cx="973.57" cy="45.05" r="16.16"/></g><path id="rocket-2" data-name="rocket" class="cls-3" d="M725.32,124.83a336.89,336.89,0,0,0-130.6,62.36L402.33,337.1a21.51,21.51,0,0,0-2.7,31.44l8.47,9.32-67.5,13.88L510.45,588.27l28.85-65.9,12.16,13.4a21.52,21.52,0,0,0,30.22,1.62l185.77-165a336.87,336.87,0,0,0,86.43-120.34l74-174.45Z"/><g id="white_lines" data-name="white lines"><path class="cls-5" d="M699.15,272.07a3,3,0,0,1-2.3-1.07l-23.68-28.27a3,3,0,1,1,4.6-3.85l21.75,26L718.41,249,686.54,211a3,3,0,1,1,4.59-3.86l33.8,40.36a3,3,0,0,1-.37,4.22l-23.48,19.67A3,3,0,0,1,699.15,272.07Z"/><path class="cls-5" d="M541.09,333.66a3,3,0,0,1-2.29-1.06l-41.1-48.33a3,3,0,0,1,3.08-4.84l5.69,1.57a3,3,0,0,1,2.1,3.68,2.93,2.93,0,0,1-1.21,1.69l34.08,40.08,18.91-15.84-13.17-15.72a3,3,0,0,1,4.6-3.85l15.09,18a3,3,0,0,1-.37,4.23L543,333A3,3,0,0,1,541.09,333.66Z"/><path class="cls-5" d="M524.39,390h-.27a3,3,0,0,1-2-1.06l-37.63-44.92a3,3,0,0,1,.38-4.23l23.48-19.67a3,3,0,0,1,4.23.38l37.62,44.91a3,3,0,0,1-.37,4.23l-23.49,19.67A3,3,0,0,1,524.39,390ZM491,342.5l33.77,40.31L543.64,367l-33.77-40.32Z"/><path class="cls-5" d="M754.54,272h-.22a3,3,0,0,1-2.05-1L714,226.6a3,3,0,0,1,.31-4.24l23.17-20a3,3,0,0,1,4.24.31L780,247a3.06,3.06,0,0,1,.73,2.18,3,3,0,0,1-1,2.06l-23.17,20A3,3,0,0,1,754.54,272Zm-34.09-47,34.39,39.79,18.64-16.11-34.39-39.79Z"/><path class="cls-5" d="M488,319.19a3,3,0,0,1-1.46-5.62c4.62-2.57,10.05-6.6,9.68-11.15-.56-6.86-13.27-13.64-16.63-14.85a3,3,0,0,1-1.95-3.74,3,3,0,0,1,3.78-2c.19.06,19.48,7.64,20.75,19.8.66,6.32-3.61,12.1-12.71,17.16A3,3,0,0,1,488,319.19Z"/><path class="cls-5" d="M558.09,294.5a178.51,178.51,0,0,1-62.31-11.1,3,3,0,0,1,2.12-5.62c62.18,23.38,146.57,9.91,180.16-53.09.27-.51,26.35-51.37,14.37-85.26a3,3,0,0,1,5.66-2C711,174,683.64,227,683.36,227.51,658.75,273.67,608.31,294.5,558.09,294.5Z"/><path class="cls-5" d="M465.69,424.69a10.06,10.06,0,0,1-1.54-.11,10.67,10.67,0,1,1,1.54.11Zm0-15.4a4.72,4.72,0,1,0,.66,0A3.67,3.67,0,0,0,465.67,409.29Z"/><path class="cls-5" d="M429.31,381.23a10.06,10.06,0,0,1-1.54-.11,10.7,10.7,0,1,1,12.11-9.07h0a10.7,10.7,0,0,1-10.57,9.18Zm0-15.4a4.71,4.71,0,0,0-4.65,4,4.7,4.7,0,0,0,9.31,1.33h0a4.7,4.7,0,0,0-4-5.32A5,5,0,0,0,429.28,365.83Z"/><path class="cls-5" d="M509.62,471a11.19,11.19,0,0,1-1.52-.1,10.71,10.71,0,1,1,12.11-9.08h0A10.71,10.71,0,0,1,509.62,471Zm0-15.4a4.72,4.72,0,0,0-4.65,4,4.71,4.71,0,0,0,4,5.32,4.72,4.72,0,0,0,5.32-4h0a4.69,4.69,0,0,0-4-5.32A5,5,0,0,0,509.61,455.61Zm7.63,5.79h0Z"/><path class="cls-5" d="M554.05,517.15a9.84,9.84,0,0,1-1.53-.11,10.7,10.7,0,1,1,12.1-9.08h0a10.69,10.69,0,0,1-10.57,9.19Zm0-15.4a4.7,4.7,0,1,0,2.82,8.46,4.65,4.65,0,0,0,1.84-3.1h0a4.72,4.72,0,0,0-4-5.32A5.12,5.12,0,0,0,554,501.75Zm7.62,5.79h0Z"/><path class="cls-5" d="M652.91,428.88a3,3,0,0,1-2.24-1L623.6,397.65a3,3,0,0,1,2-5l24.19-2.14c5.16-29.29,29.85-34,44.36-34.2a12.31,12.31,0,0,1,10.21,5.15A12.68,12.68,0,0,1,706.09,373c-11.09,32.82-36,33.54-44.38,32.78l-5.91,21a3,3,0,0,1-2.21,2.11A3.21,3.21,0,0,1,652.91,428.88Zm-20.84-30.77,19.43,21.71,5.15-18.22a3,3,0,0,1,3.56-2.11c1.15.26,28.58,5.95,40.2-28.45a6.56,6.56,0,0,0-.93-6,6.28,6.28,0,0,0-5.29-2.68c-15.83.19-35.42,5.79-38.85,31.38a3,3,0,0,1-2.71,2.59Z"/><path class="cls-5" d="M749.39,357.32a3,3,0,0,0-2.19.69l-23.48,19.67a3,3,0,0,0-.37,4.23l14.24,17,4.49-4-12.21-14.58,18.89-15.82,11.75,14,4.49-4-13.57-16.2A3,3,0,0,0,749.39,357.32Z"/><path class="cls-5" d="M770.86,320.15l-23.48,19.67a3,3,0,0,0-.38,4.23l22.33,26.66c1.49-1.35,3-2.7,4.43-4.06L753.53,342.5l18.89-15.82L791.2,349.1c1.37-1.48,2.72-3,4.06-4.48l-20.17-24.09A3,3,0,0,0,770.86,320.15Z"/><path class="cls-5" d="M635.94,450.89a3,3,0,0,0-2.19.69l-23.48,19.67a3,3,0,0,0-.37,4.23l17.7,21.13,4.49-4-15.67-18.7,18.89-15.82,15.2,18.16,4.49-4L638,452A3,3,0,0,0,635.94,450.89Z"/><path class="cls-5" d="M590,464.53a3,3,0,0,0-4.23-.38l-23.48,19.67,5.42,3.29,19.61-16.43,29.65,35.39,4.49-4Z"/><path class="cls-5" d="M735.54,122.45l-6.16,1.43c25.49,41.76,67.54,102.38,117.77,143q1.33-2.77,2.63-5.58C801.41,221.8,760.68,163.44,735.54,122.45Z"/><path class="cls-5" d="M757.27,117.38l-6.21,1.45c24.47,37.8,62.1,89,105.9,124.62a3.52,3.52,0,0,0,.45.3l2.42-5.72C817.72,203.46,781.35,154.35,757.27,117.38Z"/><polygon class="cls-5" points="539.3 522.38 408.05 377.87 401.22 379.28 536.66 528.4 539.3 522.38"/><polygon class="cls-5" points="412.88 328.88 595.13 525.44 599.62 521.46 417.63 325.18 412.88 328.88"/><path class="cls-5" d="M462.12,329.48c10.49,0,22.8-4,35.58-16.5a3,3,0,1,0-4.19-4.28c-30.77,30.11-57.27,5.32-58.38,4.25l-.79-.8-4.75,3.71C431.42,317.54,445.05,329.48,462.12,329.48Z"/></g></g><g id="cat"><path id="arm" class="cls-6" d="M648.77,141s77.6-29.84,100.22-27.38,3.63,16.3.72,17.48l-118.9,42.2S627.22,156.38,648.77,141Z"/><path id="astronaut_suit" data-name="astronaut suit" class="cls-6" d="M701.84,52.6C692,32.67,664.52-2.47,609.53,8.93,549.93,21.29,457.66,47,464.21,127.61s67.54,58.76,67.54,58.76l-18,75.08c21.41,20.69,139.69,6.69,148.56-65.37l13.92-48.24s13.9-22.55,21.12-33.67S713.77,76.69,701.84,52.6Z"/><path id="shape" class="cls-1" d="M634.05,149.94c22.09-18.23,80.08-40.3,49.14-99.58s-136.26-9-155.08,52.37S601.63,176.69,634.05,149.94Z"/><path id="tail" class="cls-2" d="M488.25,314.86a27.09,27.09,0,0,0,10.21-18.54c2.39-22.9-7.41-63.31-42.55-81.83-41.82-22.05-75.6-7.05-92.1,31.72s14.54,52.17,48.22,4.64c0,0,14.93-22.85,29.39-6.11s-21.92,56.51-3.24,72.39C453.78,330.4,479.85,321.39,488.25,314.86Z"/><g id="cat-2" data-name="cat"><path class="cls-2" d="M605.9,29.55c-34.25,11.88-67.92,41-77.79,73.18-18.83,61.34,61.22,68.88,105.94,47.21,8.15-6.73,21.2-14,32.86-23.44a60.18,60.18,0,0,0,6.82-17.89C687,58.42,622.61,32.06,605.9,29.55Z"/><ellipse id="eye_II" data-name="eye II" class="cls-1" cx="588.79" cy="88.62" rx="5.27" ry="8.33" transform="translate(9.29 225.38) rotate(-21.84)"/><ellipse id="eye" class="cls-1" cx="627.72" cy="74.03" rx="5.27" ry="8.33" transform="translate(17.51 238.81) rotate(-21.84)"/><g id="nose_and_mouth" data-name="nose and mouth"><path class="cls-1" d="M627,89.66l-3.85,8.56a2.55,2.55,0,0,1-3.34,1.23l-8-3.55a2.3,2.3,0,0,1,.05-4.28l11.89-5A2.41,2.41,0,0,1,627,89.66Z"/><path class="cls-4" d="M621.13,96.1c2.13,5.07,11.65,15.5,11.57,5.33"/><path class="cls-4" d="M621.38,96c2.13,5.08,5.42,21.38-4.5,11.49"/></g><g id="white_whiskers" data-name="white whiskers"><path class="cls-5" d="M683.19,50.36c-.33-.62-.67-1.21-1-1.81C669.86,52.3,655,59.37,645.84,72.62a3,3,0,1,0,4.94,3.4C659.13,63.9,673.41,57.43,685,54,684.43,52.82,683.84,51.6,683.19,50.36Z"/><path class="cls-5" d="M691.42,74c-18.29,1.82-36,12.59-39.48,19.07a3,3,0,0,0,1.25,4.06,3.09,3.09,0,0,0,1.4.35,3,3,0,0,0,2.65-1.6C659.73,91.14,675.88,81.66,692,80A54,54,0,0,0,691.42,74Z"/></g><g id="whiskers"><path class="cls-1" d="M571.73,106.25c-10-5-29.11-4.29-45.57,4.91a46.14,46.14,0,0,0-.55,7.36c15.25-10.09,34.3-11.51,43.42-6.92a3,3,0,1,0,2.7-5.35Z"/><path class="cls-1" d="M574,115.54c-14.34-1-32.85,3.35-45.55,17.49a36.52,36.52,0,0,0,3,5.71c14.55-18,37.4-17.53,42.13-17.21a3,3,0,0,0,.41-6Z"/></g></g><path id="glass" class="cls-4" d="M630.59,149.87c25.68-12.69,83.54-40.23,52.6-99.51s-136.26-9-155.08,52.37S587.43,171.22,630.59,149.87Z"/><path id="arm_II" data-name="arm II" class="cls-6" d="M593.7,189.49c.62-.52,1.25-1,1.9-1.54a25.86,25.86,0,0,1,10.18-4.75c23.55-5.4,121.29-27.94,133.54-32.75,13.94-5.47,2.89,29.54-18.56,37.67-12.43,4.72-60,27.47-97.88,45.76C594.68,247.52,569.76,209.69,593.7,189.49Z"/><g id="ear"><path class="cls-2" d="M524.23,60.74a95.6,95.6,0,0,1,42.62-30.81c-40.13-8-69-10.39-70.86,7.44C498.13,44.4,516.48,56.07,524.23,60.74Z"/><path class="cls-1" d="M531.5,52.53c1.66-1.67,3.33-3.25,5-4.72C515.78,42,511.32,30.57,511.09,30a3,3,0,0,0-5.66,2C505.66,32.59,510.34,45.43,531.5,52.53Z"/></g><g id="ear_II" data-name="ear II"><path class="cls-2" d="M501.77,108.9c4.66-19.4,12.06-34.25,20.51-45.63-43.25.63-79,.4-74.83,26.58,8,20.5,52.95,21.35,52.95,21.35Z"/><path class="cls-1" d="M505.46,96.07A58.78,58.78,0,0,1,454.6,82.33a3,3,0,1,0-4.22,4.26,64.82,64.82,0,0,0,43.21,16.69,65.56,65.56,0,0,0,9.86-.76Q504.41,99.21,505.46,96.07Z"/></g></g></g></g></g></svg>